<svg width="71" height="71" viewBox="0 0 71 71" fill="none" xmlns="http://www.w3.org/2000/svg">
<circle cx="35.5" cy="35.5" r="35.5" fill="#C19A6B"/>
<path fill-rule="evenodd" clip-rule="evenodd" d="M48.8663 32.592C48.3179 30.1881 45.8831 30.064 43.926 29.9632C42.6944 29.899 41.4204 29.8347 40.8875 29.2666C40.3447 28.6882 39.921 27.5798 39.5086 26.5078C38.705 24.4106 37.7937 22.0344 35.4993 22.0344C33.2063 22.0344 32.2964 24.4106 31.4915 26.5078C31.0805 27.5798 30.6553 28.6882 30.1139 29.2666C29.5796 29.8347 28.3056 29.899 27.074 29.9632C25.1169 30.064 22.6821 30.1881 22.1337 32.592C21.6136 34.8733 23.2391 36.2534 24.6733 37.4714C25.654 38.3039 26.5809 39.0925 26.7863 40.0564C26.9862 40.9925 26.6857 42.2018 26.3952 43.3731C25.8963 45.387 25.3295 47.6683 27.2214 49.139C27.8124 49.599 28.4119 49.7815 29.0043 49.7815C30.2868 49.7815 31.5368 48.9286 32.6068 48.1984C33.5974 47.5237 34.622 46.8241 35.4993 46.8241C36.3765 46.8241 37.4026 47.5237 38.3918 48.1984C39.9578 49.266 41.905 50.5921 43.78 49.139C45.672 47.6683 45.1051 45.3856 44.6048 43.3702C44.3143 42.2003 44.0152 40.9911 44.2137 40.0564C44.4191 39.0925 45.346 38.3053 46.3267 37.4714C47.7609 36.2534 49.3864 34.8733 48.8663 32.592Z" fill="#FFFFFF"/>
</svg>
